<?xml version="1.0" encoding="utf-8"?>

<!DOCTYPE svg PUBLIC "-//W3C//DTD SVG 1.1//EN" "http://www.w3.org/Graphics/SVG/1.1/DTD/svg11.dtd">
<svg version="1.1" id="Layer_1" xmlns="http://www.w3.org/2000/svg" xmlns:xlink="http://www.w3.org/1999/xlink" x="0px" y="0px"
	 viewBox="0 0 1223.761 1740.536" style="enable-background:new 0 0 1223.761 1740.536;" xml:space="preserve"  fill="currentColor">
<style type="text/css">
	.st0{fill:#7152a2;}
</style>
<g>
	<path d="M611.88,70.268c42.725,0,78.71,52.411,119.275,63.282c40.906,10.962,98.261-16.341,134.938,4.833
		c36.371,20.997,41.443,84.233,71.654,114.444c30.211,30.211,93.447,35.283,114.444,71.654
		c21.174,36.677-6.129,94.031,4.833,134.938c10.871,40.565,63.282,76.55,63.282,119.275s-52.411,78.71-63.282,119.275
		c-10.962,40.906,16.341,98.261-4.833,134.938c-20.997,36.371-84.233,41.443-114.444,71.654s-35.283,93.447-71.654,114.444
		c-36.677,21.174-94.031-6.129-134.938,4.833c-40.565,10.871-76.55,63.282-119.275,63.282c-42.725,0-78.71-52.411-119.275-63.282
		c-40.906-10.962-98.261,16.341-134.938-4.833c-36.371-20.997-41.443-84.233-71.654-114.444
		c-30.211-30.211-93.447-35.283-114.444-71.654c-21.174-36.677,6.129-94.031-4.833-134.938
		c-10.871-40.565-63.282-76.55-63.282-119.275c0-42.725,52.411-78.71,63.282-119.275c10.962-40.906-16.341-98.261,4.833-134.938
		c20.997-36.371,84.233-41.443,114.444-71.654c30.211-30.211,35.283-93.447,71.654-114.444
		c36.677-21.174,94.031,6.129,134.938-4.833C533.171,122.679,569.156,70.268,611.88,70.268z"/>
	<path class="st0" d="M891.839,298.735c74.25,74.25,115.963,174.954,115.963,279.959s-41.713,205.709-115.963,279.959
		S716.885,974.614,611.88,974.614s-205.709-41.713-279.959-115.963S215.959,683.698,215.959,578.693s41.713-205.709,115.963-279.959
		S506.875,182.772,611.88,182.772S817.589,224.485,891.839,298.735z M611.88,219.423c-95.284,0-186.666,37.852-254.043,105.228
		S252.61,483.409,252.61,578.693s37.852,186.666,105.228,254.043S516.596,937.964,611.88,937.964s186.666-37.852,254.043-105.228
		s105.228-158.758,105.228-254.043s-37.852-186.666-105.228-254.043S707.165,219.423,611.88,219.423z"/>
	<polygon class="st0" points="611.88,232.587 618.229,245.451 632.425,247.514 622.152,257.526 624.577,271.665 611.88,264.99 
		599.183,271.665 601.608,257.526 591.336,247.514 605.532,245.451 	"/>
	<polygon class="st0" points="671.981,237.845 675.999,251.616 689.621,256.112 677.766,264.189 677.699,278.534 666.354,269.755 
		652.691,274.124 657.534,260.622 649.157,248.977 663.495,249.411 	"/>
	<polygon class="st0" points="730.255,253.46 731.822,267.719 744.456,274.513 731.378,280.408 728.822,294.524 719.173,283.908 
		704.959,285.838 712.073,273.382 705.845,260.46 719.89,263.376 	"/>
	<polygon class="st0" points="784.933,278.957 784,293.271 795.262,302.155 781.36,305.691 776.39,319.147 768.732,307.018 
		754.398,306.45 763.568,295.419 759.678,281.611 773.003,286.922 	"/>
	<polygon class="st0" points="834.353,313.561 830.948,327.495 840.496,338.201 826.191,339.268 818.961,351.657 813.525,338.382 
		799.508,335.334 810.453,326.062 809.021,311.789 821.221,319.334 	"/>
	<polygon class="st0" points="877.013,356.221 871.24,369.352 878.784,381.553 864.511,380.12 855.239,391.066 852.191,377.048 
		838.916,371.613 851.305,364.382 852.373,350.077 863.078,359.626 	"/>
	<polygon class="st0" points="911.617,405.64 903.651,417.57 908.962,430.895 895.155,427.006 884.123,436.175 883.556,421.841 
		871.426,414.183 884.883,409.214 888.418,395.311 897.302,406.574 	"/>
	<polygon class="st0" points="937.114,460.318 927.197,470.683 930.114,484.728 917.192,478.5 904.735,485.615 906.665,471.4 
		896.05,461.752 910.165,459.195 916.061,446.118 922.854,458.752 	"/>
	<polygon class="st0" points="952.728,518.592 941.162,527.078 941.596,541.417 929.952,533.039 916.449,537.882 920.818,524.219 
		912.039,512.874 926.384,512.807 934.461,500.952 938.958,514.574 	"/>
	<polygon class="st0" points="957.986,578.693 945.123,585.042 943.06,599.237 933.047,588.965 918.909,591.39 925.584,578.693 
		918.909,565.996 933.047,568.421 943.06,558.149 945.123,572.345 	"/>
	<polygon class="st0" points="952.728,638.794 938.958,642.812 934.461,656.434 926.384,644.579 912.039,644.512 920.818,633.167 
		916.449,619.504 929.952,624.347 941.596,615.97 941.162,630.308 	"/>
	<polygon class="st0" points="937.114,697.068 922.854,698.634 916.061,711.269 910.165,698.191 896.05,695.634 906.665,685.986 
		904.735,671.772 917.192,678.886 930.114,672.658 927.197,686.703 	"/>
	<polygon class="st0" points="911.617,751.746 897.302,750.812 888.418,762.075 884.883,748.172 871.426,743.203 883.556,735.545 
		884.123,721.211 895.155,730.381 908.962,726.491 903.651,739.816 	"/>
	<polygon class="st0" points="877.013,801.166 863.078,797.76 852.373,807.309 851.305,793.004 838.916,785.774 852.191,780.338 
		855.239,766.321 864.511,777.266 878.784,775.833 871.24,788.034 	"/>
	<polygon class="st0" points="834.353,843.826 821.221,838.052 809.021,845.597 810.453,831.324 799.508,822.052 813.525,819.004 
		818.961,805.729 826.191,818.118 840.496,819.186 830.948,829.891 	"/>
	<polygon class="st0" points="784.933,878.43 773.003,870.464 759.678,875.775 763.568,861.968 754.398,850.936 768.732,850.368 
		776.39,838.239 781.36,851.696 795.262,855.231 784,864.115 	"/>
	<polygon class="st0" points="730.255,903.926 719.89,894.01 705.845,896.927 712.073,884.004 704.959,871.548 719.173,873.478 
		728.822,862.863 731.378,876.978 744.456,882.874 731.822,889.667 	"/>
	<polygon class="st0" points="671.981,919.541 663.495,907.975 649.157,908.409 657.534,896.764 652.691,883.262 666.354,887.631 
		677.699,878.852 677.766,893.197 689.621,901.274 675.999,905.77 	"/>
	<polygon class="st0" points="611.88,924.799 605.532,911.936 591.336,909.873 601.608,899.86 599.183,885.721 611.88,892.397 
		624.577,885.721 622.152,899.86 632.425,909.873 618.229,911.936 	"/>
	<polygon class="st0" points="551.78,919.541 547.761,905.77 534.139,901.274 545.994,893.197 546.061,878.852 557.406,887.631 
		571.07,883.262 566.226,896.764 574.604,908.409 560.265,907.975 	"/>
	<polygon class="st0" points="493.505,903.926 491.939,889.667 479.305,882.874 492.382,876.978 494.939,862.863 504.587,873.478 
		518.802,871.548 511.688,884.004 517.916,896.927 503.87,894.01 	"/>
	<polygon class="st0" points="438.827,878.43 439.761,864.115 428.499,855.231 442.401,851.696 447.37,838.239 455.029,850.368 
		469.362,850.936 460.193,861.968 464.082,875.775 450.757,870.464 	"/>
	<polygon class="st0" points="389.408,843.826 392.813,829.891 383.264,819.186 397.569,818.118 404.8,805.729 410.236,819.004 
		424.253,822.052 413.307,831.324 414.74,845.597 402.539,838.052 	"/>
	<polygon class="st0" points="346.748,801.166 352.521,788.034 344.976,775.833 359.249,777.266 368.521,766.321 371.569,780.338 
		384.845,785.774 372.455,793.004 371.388,807.309 360.683,797.76 	"/>
	<polygon class="st0" points="312.144,751.746 320.11,739.816 314.798,726.491 328.606,730.381 339.637,721.211 340.205,735.545 
		352.335,743.203 338.878,748.172 335.342,762.075 326.458,750.812 	"/>
	<polygon class="st0" points="286.647,697.068 296.564,686.703 293.647,672.658 306.569,678.886 319.025,671.772 317.095,685.986 
		327.711,695.634 313.596,698.191 307.7,711.269 300.906,698.634 	"/>
	<polygon class="st0" points="271.032,638.794 282.598,630.308 282.165,615.97 293.809,624.347 307.312,619.504 302.943,633.167 
		311.721,644.512 297.377,644.579 289.299,656.434 284.803,642.812 	"/>
	<polygon class="st0" points="265.774,578.693 278.638,572.345 280.701,558.149 290.714,568.421 304.852,565.996 298.177,578.693 
		304.852,591.39 290.714,588.965 280.701,599.237 278.638,585.042 	"/>
	<polygon class="st0" points="271.032,518.592 284.803,514.574 289.299,500.952 297.377,512.807 311.721,512.874 302.943,524.219 
		307.312,537.882 293.809,533.039 282.165,541.417 282.598,527.078 	"/>
	<polygon class="st0" points="286.647,460.318 300.906,458.752 307.7,446.118 313.596,459.195 327.711,461.752 317.095,471.4 
		319.025,485.615 306.569,478.5 293.647,484.728 296.564,470.683 	"/>
	<polygon class="st0" points="312.144,405.64 326.458,406.574 335.342,395.311 338.878,409.214 352.335,414.183 340.205,421.841 
		339.637,436.175 328.606,427.006 314.798,430.895 320.11,417.57 	"/>
	<polygon class="st0" points="346.748,356.221 360.683,359.626 371.388,350.077 372.455,364.382 384.845,371.613 371.569,377.048 
		368.521,391.066 359.249,380.12 344.976,381.553 352.521,369.352 	"/>
	<polygon class="st0" points="389.408,313.561 402.539,319.334 414.74,311.789 413.307,326.062 424.253,335.334 410.236,338.382 
		404.8,351.657 397.569,339.268 383.264,338.201 392.813,327.495 	"/>
	<polygon class="st0" points="438.827,278.957 450.757,286.922 464.082,281.611 460.193,295.419 469.362,306.45 455.029,307.018 
		447.37,319.147 442.401,305.691 428.499,302.155 439.761,293.271 	"/>
	<polygon class="st0" points="493.505,253.46 503.87,263.376 517.916,260.46 511.688,273.382 518.802,285.838 504.587,283.908 
		494.939,294.524 492.382,280.408 479.305,274.513 491.939,267.719 	"/>
	<polygon class="st0" points="551.78,237.845 560.265,249.411 574.604,248.977 566.226,260.622 571.07,274.124 557.406,269.755 
		546.061,278.534 545.994,264.189 534.139,256.112 547.761,251.616 	"/>
	<path d="M895.057,1088.002c-36.677,21.174-94.031-6.129-134.938,4.833c-40.565,10.871-76.55,63.282-119.275,63.282
		c-1.529,0-3.049-0.075-4.562-0.205l137.821,514.356l116.992-146.285l174.461,68.19L922.233,1057.28
		C915.149,1070.206,906.711,1081.274,895.057,1088.002z"/>
	<path d="M340.707,1088.002c36.677,21.174,94.031-6.129,134.938,4.833c40.565,10.871,76.55,63.282,119.275,63.282
		c1.529,0,3.049-0.075,4.562-0.205l-137.821,514.356l-116.993-146.285l-174.461,68.19l143.324-534.893
		C320.615,1070.206,329.053,1081.274,340.707,1088.002z"/>
</g>
</svg>
