<svg width="34" height="34" viewBox="0 0 34 34" fill="none" xmlns="http://www.w3.org/2000/svg">
<g clip-path="url(#clip0)">
<path d="M32.6719 31.3431H23.9727V24.8353C23.9727 24.1017 23.3781 23.5072 22.6445 23.5072C21.9109 23.5072 21.3164 24.1017 21.3164 24.8353V31.3431H18.5938V4.72769H19.9883C20.7219 4.72769 21.3164 5.32222 21.3164 6.05581V9.16342C21.3164 9.89675 21.9109 10.4915 22.6445 10.4915C23.3781 10.4915 23.9727 9.89675 23.9727 9.16342V6.05581C23.9727 3.85531 22.1888 2.07144 19.9883 2.07144H18.208C17.9896 1.6297 17.6842 1.2302 17.3017 0.90076C16.4807 0.193667 15.3948 -0.11997 14.3233 0.0408659L3.39323 1.68057C2.45006 1.82195 1.58777 2.29795 0.965215 3.02091C0.342656 3.74355 0 4.66699 0 5.62078V32.6712C0 33.4048 0.594535 33.9994 1.32812 33.9994H32.6719C33.4055 33.9994 34 33.4048 34 32.6712C34 31.9376 33.4055 31.3431 32.6719 31.3431ZM15.9375 31.3431H2.65625V5.62078C2.65625 4.95805 3.13198 4.40575 3.78721 4.3072L14.7173 2.66783C15.1365 2.60508 15.4304 2.79467 15.5683 2.91347C15.7061 3.03227 15.9375 3.29477 15.9375 3.71864V31.3431ZM13.3477 15.5387V18.4606C13.3477 19.1942 12.7531 19.7887 12.0195 19.7887C11.2859 19.7887 10.6914 19.1942 10.6914 18.4606V15.5387C10.6914 14.8051 11.2859 14.2106 12.0195 14.2106C12.7531 14.2106 13.3477 14.8051 13.3477 15.5387Z" fill="#84716B"/>
<path d="M22.4977 14.1774L25.031 11.6729C25.5526 11.1572 26.3936 11.1619 26.9093 11.6835C27.4249 12.2051 27.42 13.0462 26.8986 13.5618L24.764 15.672H32.6719C33.4055 15.672 34 16.2665 34 17.0001C34 17.7334 33.4055 18.3283 32.6719 18.3283H24.7641L26.8987 20.4384C27.4201 20.9542 27.4251 21.7949 26.9093 22.3165C26.6497 22.5793 26.3073 22.7108 25.9648 22.7108C25.6274 22.7108 25.2899 22.5832 25.031 22.3272L22.4977 19.8227C21.7359 19.0696 21.3164 18.0673 21.3164 17.0001C21.3164 15.933 21.7359 14.9304 22.4977 14.1774Z" fill="#BDD213"/>
</g>
<defs>
<clipPath id="clip0">
<rect width="34" height="34" fill="white"/>
</clipPath>
</defs>
</svg>
