<?xml version="1.0" encoding="utf-8"?>
<svg version="1.1" id="Layer_1" xmlns="http://www.w3.org/2000/svg" xmlns:xlink="http://www.w3.org/1999/xlink" x="0px" y="0px"
	 viewBox="0 0 1853.387 1643.513" enable-background="new 0 0 1853.387 1643.513" xml:space="preserve" fill="#BDD213">
<g>
	<g>
		<path d="M956.208,103.271c33.593-24.442,145.832-9.915,183.23,0.057c-9.545,53.993-2.294,72.014,155.354,170.722
			c4.106,2.599,30.165,69.261,31.438,76.441c-42.196-20.833-85.651-39.458-125.622-64.47
			c-26.887-16.209-43.453-32.675-52.331-39.293c-47.802-12.663-147.084-15.554-193.401-89.058
			C941.442,138.905,936.703,115.168,956.208,103.271z"/>
		<path d="M1659.371,1516.965"/>
		<path d="M1471.591,1618.599c110.043-230.356,12.935-279.95,65.222-402.731c20.516-41.984-7.923,7.758,109.07-132.289
			c249.032-295.307,195.112-403.571,120.663-513.509c0.553,0.279,1.148,0.558,1.786,0.837
			c-23.247-36.377-72.488-153.998-139.276-253.96c-23.158-18.809,1.051-20.815-79.396-70.941
			c-16.704-9.926-65.993-40.455-74.498-58.229c-24.7-43.269-88.916-102.354-155.433-127.676
			c-51.31-17.625-59.31-30.792-87.339-36.92c-67.256-13.121-93.141,67.435-55.874,117.538c6.84,10.47,18.156,16.541,26.308,25.768
			c28.983,31.426,64.695,55.847,118.897,91.009c1.343,0.597,1.842,1.997,1.973,3.375c5.599,46.951,55.279,96.806,63.923,109.217
			c-0.066-0.689-0.115-1.375-0.139-2.064c5.2,8.226,12.706,14.628,18.883,22.06c9.218,43.714,32.386,64.391,66.321,111.393
			c11.211-7.42,21.822-16.243,34.713-20.599c59.241-22.523,131.42-2.737,130.256,66.279c-0.018,1.114-20.9,201.768-50.04,304.162
			c-11.045-5.053-15.645-17.824-16.254-29.201c4.953-51.701,10.45-103.37,15.279-155.088c-5.609-1.166-95.387-10.263-98.065-10.527
			c0.051-1.135,8.905-85.498,14.587-97.241c11.947-25.89,47.346-44.959,73.535-56.504c-7.501-5.151-16.204-9.105-25.417-9.349
			c-27.87-1.095-80.649,34.711-101.435,55.171c-109.451,103.565-21.084,270.588-241.965,470.356
			c-93.235,88.223-187.098,153.011-199.643,292.83c-11.652,124.724,36.206,174.943,112.436,255.034
			c15.183,15.952,53.317,53.281,55.42,54.956L1471.591,1618.599z"/>
		<path d="M1533.712,541.428c2.364-1.59,26.004-19.554,55.163-29.992c3.866,3.93,8.959,6.489,12.399,10.858
			c-4.419,43.324-8.578,86.699-13.072,130.016c0.05,4.265-72.103-6.693-85.602-6.661c-0.451-5.38,1.341-10.608,1.577-15.953
			C1513.115,562.033,1508.275,565.152,1533.712,541.428z"/>
	</g>
	<g>
		<path d="M898.512,157.67c-46.318,73.504-145.599,76.394-193.401,89.058c-8.878,6.619-25.444,23.084-52.331,39.293
			c-39.97,25.012-83.425,43.637-125.622,64.47c1.273-7.18,27.331-73.842,31.438-76.441
			c157.648-98.708,164.898-116.729,155.354-170.722c37.398-9.972,149.637-24.499,183.23-0.057
			C916.684,115.168,911.945,138.905,898.512,157.67z"/>
		<path d="M194.016,1516.965"/>
		<path d="M381.796,1618.599c-110.043-230.356-12.935-279.95-65.222-402.731c-20.516-41.984,7.923,7.758-109.07-132.289
			C-41.528,788.272,12.393,680.008,86.842,570.07c-0.553,0.279-1.148,0.558-1.786,0.837
			c23.247-36.377,72.488-153.998,139.276-253.96c23.158-18.809-1.051-20.815,79.396-70.941
			c16.704-9.926,65.993-40.455,74.498-58.229c24.7-43.269,88.916-102.354,155.433-127.676c51.31-17.625,59.31-30.792,87.339-36.92
			c67.256-13.121,93.141,67.435,55.874,117.538c-6.84,10.47-18.156,16.541-26.308,25.768
			c-28.983,31.426-64.695,55.847-118.897,91.009c-1.343,0.597-1.842,1.997-1.973,3.375c-5.599,46.951-55.279,96.806-63.923,109.217
			c0.066-0.689,0.115-1.375,0.139-2.064c-5.2,8.226-12.706,14.628-18.883,22.06c-9.218,43.714-32.386,64.391-66.321,111.393
			c-11.211-7.42-21.822-16.243-34.713-20.599c-59.241-22.523-131.42-2.737-130.256,66.279c0.018,1.114,20.9,201.768,50.04,304.162
			c11.045-5.053,15.644-17.824,16.254-29.201c-4.953-51.701-10.45-103.37-15.279-155.088c5.609-1.166,95.387-10.263,98.065-10.527
			c-0.051-1.135-8.905-85.498-14.587-97.241c-11.947-25.89-47.346-44.959-73.535-56.504c7.502-5.151,16.204-9.105,25.417-9.349
			c27.87-1.095,80.649,34.711,101.435,55.171c109.451,103.565,21.084,270.588,241.965,470.356
			c93.235,88.223,187.098,153.011,199.643,292.83c11.652,124.724-36.206,174.943-112.436,255.034
			c-15.183,15.952-53.317,53.281-55.42,54.956L381.796,1618.599z"/>
		<path d="M349.208,629.695c0.235,5.344,2.028,10.573,1.577,15.953c-13.499-0.032-85.651,10.926-85.602,6.661
			c-4.494-43.317-8.653-86.692-13.072-130.016c3.44-4.369,8.534-6.928,12.399-10.858c29.16,10.438,52.799,28.402,55.163,29.992
			C345.112,565.152,340.272,562.033,349.208,629.695z"/>
	</g>
</g>
</svg>
